<svg xmlns="http://www.w3.org/2000/svg" x="0px" y="0px" width="96px" height="17px" viewBox="0 0 96 17"><path fill="#000" d="M16 5c-1.1 0-2 .9-2 2v8c0 1.1.9 2 2 2s2-.9 2-2V7c0-1.1-.9-2-2-2zm7-4c-1.1 0-2 .9-2 2v12c0 1.1.9 2 2 2s2-.9 2-2V3c0-1.1-.9-2-2-2zM9 8c-1.1 0-2 .9-2 2v5c0 1.1.9 2 2 2s2-.9 2-2v-5c0-1.1-.9-2-2-2zm-7 3c-1.1 0-2 .9-2 2v2c0 1.1.9 2 2 2s2-.9 2-2v-2c0-1.1-.9-2-2-2zm87-8H66c-1.1 0-2 .9-2 2v8c0 1.1.9 2 2 2h23c1.1 0 2-.9 2-2V5c0-1.1-.9-2-2-2zm0-2H66c-2.21 0-4 1.79-4 4v8c0 2.21 1.79 4 4 4h23c2.21 0 4-1.79 4-4V5c0-2.21-1.79-4-4-4zm3 12c0 1.66-1.34 3-3 3H66c-1.66 0-3-1.34-3-3V5c0-1.66 1.34-3 3-3h23c1.66 0 3 1.34 3 3v8zm2.5-6H94v4h.5c.83 0 1.5-.67 1.5-1.5v-1c0-.83-.67-1.5-1.5-1.5zm-54.93 6.2 3.83 3.79 4-3.96c-.98-.79-2.31-1.29-3.8-1.29-1.61 0-3.04.57-4.03 1.46zm4.02-7.33c-3.28 0-6.17 1.41-7.84 3.54l2.63 2.36c.87-1.5 3.03-1.99 5.2-1.99 2.06 0 4.1.62 5.02 1.99l2.64-2.56c-1.68-2.02-4.48-3.34-7.65-3.34zm0-5.87c-4.97 0-9.29 2.3-11.58 5.7l2.54 2.14c1.44-2.78 5.18-3.93 9.04-3.93 3.74 0 7.35 1.28 8.85 3.93L55 5.47C52.68 2.2 48.45 0 43.59 0z"/></svg>