<?xml version="1.0" encoding="utf-8"?>
<!-- Generator: Adobe Illustrator 23.0.0, SVG Export Plug-In . SVG Version: 6.00 Build 0)  -->
<svg version="1.1" id="图层_1" xmlns="http://www.w3.org/2000/svg" xmlns:xlink="http://www.w3.org/1999/xlink" x="0px" y="0px"
	 width="148.697px" height="40.01px" viewBox="0 0 148.697 40.01" style="enable-background:new 0 0 148.697 40.01;"
	 xml:space="preserve">
<style type="text/css">
	.st0{fill:#FFFFFF;}
</style>
<path class="st0" d="M23.3,38.485l23.26-28.98c-0.9-0.68-9.85-8-23.28-8S0.9,8.825,0,9.505l23.26,28.98l0.02,0.02L23.3,38.485z"/>
<path class="st0" d="M132.017,4h-3.33V0h-8v4h-3.33c-1.48,0-2.67,1.19-2.67,2.67v30.67c0,1.47,1.19,2.67,2.67,2.67h14.67
	c1.47,0,2.67-1.19,2.67-2.67V6.67C134.687,5.19,133.497,4,132.017,4z"/>
<path class="st0" d="M53.56,40.005h40v-40L53.56,40.005z"/>
</svg>
