<?xml version="1.0" encoding="utf-8"?>
<!-- Generator: Adobe Illustrator 23.0.0, SVG Export Plug-In . SVG Version: 6.00 Build 0)  -->
<svg version="1.1" id="图层_1" xmlns="http://www.w3.org/2000/svg" xmlns:xlink="http://www.w3.org/1999/xlink" x="0px" y="0px"
	 width="1024px" height="1024px" viewBox="0 0 1024 1024" style="enable-background:new 0 0 1024 1024;" xml:space="preserve">
<style type="text/css">
	.st0{fill:#fff;}
</style>
<path class="st0" d="M127.9,426.7c29.9-67,94.5-116.7,166.4-130.3c55.8-9.6,113,5.1,161.9,31.9c41.5,21.2,78.2,50.6,111.7,82.8
	c-16.2,18.4-39.1,28.9-57.5,44.7c-46.1-38.9-96.6-77.7-158-87.1c-78.9-13.2-158.6,49.2-170.5,127.1c-8.7,45.9,10.1,94.7,45.2,124.9
	c39.7,35,97.2,44.6,147.6,31.3c57.6-13.9,102-57.1,136.9-102.8c54.1-72.1,99.2-150.4,147.8-226.1c13.9-19.1,47.4-17.2,58.7,3.8
	c63.6,109,126.1,218.7,189.6,327.8c7.6,15.1,4.4,35.8-9.6,46.1c-13.1,10.6-33.3,10.2-46.1-0.7C776.6,646,701.2,591.8,625.9,537.4
	c18.9-15,38.4-29.3,58-43.5c23.7,12.9,43.8,33.2,69.6,41.7c-20.4-39.6-43.6-77.7-66.3-115.9c-42.7,59.1-77.1,124.2-123.1,181.1
	C516,663.5,448.8,717,368.6,728.5c-38.9,3.4-79.3,4.2-116.4-10c-53.5-19.1-100.3-58.7-124.6-110.6
	C99.5,551.8,100.9,482.9,127.9,426.7L127.9,426.7z"/>
</svg>
