<?xml version="1.0" encoding="utf-8"?>
<!-- Generator: Adobe Illustrator 23.0.0, SVG Export Plug-In . SVG Version: 6.00 Build 0)  -->
<svg version="1.1" id="图层_1" xmlns="http://www.w3.org/2000/svg" xmlns:xlink="http://www.w3.org/1999/xlink" x="0px" y="0px"
	 width="1024px" height="1024px" viewBox="0 0 1024 1024" style="enable-background:new 0 0 1024 1024;" xml:space="preserve">
<style type="text/css">
	.st0{fill:#fff;}
</style>
<path class="st0" d="M604,105.2c22.1-6.4,45.8-6.1,68.1-0.9c25.6,6.1,49.9,17.9,70.8,33.9c7.6,5.8,14.5,13,18,22.1
	c5.4,13.4,4,29.4-4,41.5c-7,10.8-18.8,18.4-31.6,20c-10.2,1.4-20.9-0.8-29.7-6.2c-5-2.9-8.7-7.4-13.7-10.3
	c-13.3-8.5-28.7-15.1-44.7-14.7c-11.3,0.1-21.2,6.8-28.9,14.5c-7.2,7.4-10.8,18.3-8.5,28.5c5.5,20.7,11,41.5,16.5,62.2
	c39.5,2,79.1,12.5,113,33.1c33,20.4,62.9,46.4,86.6,77.3c20.1,26.2,35.3,56.1,44.6,87.7c10.1,34.1,13.4,70.1,10.7,105.5
	c-2.2,29.2-7.9,58.3-17.9,85.9c-25.7,67.3-73.2,126.3-134.3,164.5c-44.8,28.3-96.4,45.4-148.9,51.9c-36.3,4.5-73.2,4.5-109.3-1.6
	c-74.1-12.3-143.6-49.2-196.4-102.6c-52.4-52.5-88.9-120.6-103.6-193.3c-10.9-53-10.4-108.4,1.7-161.1
	c14.8-65.1,47.4-125.9,93.2-174.4c37.4-39.8,83.5-71.3,134.2-91.6c5.2-2,10.4-4.4,15.9-5.2c11.9-2.1,24.5,0.7,34.3,7.9
	c13.2,9.3,20.4,26.1,18.2,42.1c-1.8,16.3-13.4,30.9-28.8,36.5c-51.2,19.1-96.6,53.3-129.3,97.1c-29.2,38.9-48.3,85.3-54.7,133.5
	c-6.4,47.7-0.7,97,16.4,142c24.7,65.8,73.8,122.4,136.4,154.6c37.7,19.5,80.1,29.7,122.6,29.4c34.9-0.5,70-6.1,102.8-18.2
	c28.9-10.7,55.9-26.5,78.9-47.1c21.4-19,39.3-42,52.9-67.2c6.8-12.8,13.1-26.1,17-40.2c11.4-40.2,13.3-83.8,1.2-124.1
	c-10-33.8-30.7-63.9-57.1-87c-11.7-10.2-24.2-19.6-37.5-27.5c-11.8-6.6-24.7-11.2-37.9-14.3c9.2,35.9,19,71.6,28.3,107.5
	c1.6,8.6,3.2,17.2,4.6,25.8c1.4,37-11.6,74.3-35.5,102.6c-22.2,26.7-53.8,45.5-88,51.9c-36.8,7.3-76.4,0.4-108-20
	c-30.2-19.1-52.5-49.5-64.3-83c-6.7-18.8-10-38.6-10.6-58.5c-2-43.3,9.3-87.4,34-123.2c29.1-42.7,74.9-72,124-86.4
	c-3.6-13.8-7.3-27.7-11-41.5c-9.5-29.9-7.5-63.4,6.7-91.5c7.6-15.7,19-29.3,32.1-40.7C568.3,120.2,585.3,110.3,604,105.2
	 M486.6,430.6c-13.2,13.8-22.4,31.3-26.4,50c-3.6,17-3.6,34.6-0.4,51.6c3.9,18.8,13.6,37.2,29.7,48.3c12.5,8.9,28.7,11.5,43.6,8.6
	c27.5-4.8,50-30.2,50.8-58.2c-1-7-2.2-13.9-4.2-20.7c-10.3-38.9-20.7-77.8-30.9-116.8C525.6,400.7,503.5,412.8,486.6,430.6
	L486.6,430.6z"/>
</svg>
