<?xml version="1.0" encoding="utf-8"?>
<!-- Generator: Adobe Illustrator 23.0.0, SVG Export Plug-In . SVG Version: 6.00 Build 0)  -->
<svg version="1.1" id="图层_1" xmlns="http://www.w3.org/2000/svg" xmlns:xlink="http://www.w3.org/1999/xlink" x="0px" y="0px"
	 width="1024px" height="1024px" viewBox="0 0 1024 1024" style="enable-background:new 0 0 1024 1024;" xml:space="preserve">
<style type="text/css">
	.st0{fill:#fff;}
</style>
<path class="st0" d="M933.4,643.9c-18.8-108.9-97.7-180.3-97.7-180.3c11.3-98.9-30.1-116.5-30.1-116.5C797,41,533.4,46.4,527.8,46.5
	C522.3,46.4,258.6,41,250,347.1c0,0-41.3,17.5-30.1,116.5c0,0-78.9,71.4-97.7,180.3c0,0-10,184.1,90.2,22.5
	c0,0,22.5,61.3,63.9,116.5c0,0-73.9,25.1-67.6,90.2c0,0-2.5,72.6,157.8,67.6c0,0,112.7-8.8,146.5-56.4h14.8h0.3h14.8
	c33.8,47.6,146.5,56.4,146.5,56.4C849.5,945.6,847,873,847,873c6.2-65.1-67.6-90.2-67.6-90.2c41.3-55.1,63.9-116.5,63.9-116.5
	C943.4,827.9,933.4,643.9,933.4,643.9L933.4,643.9z"/>
</svg>
