<?xml version="1.0" encoding="utf-8"?>
<!-- Generator: Adobe Illustrator 23.0.0, SVG Export Plug-In . SVG Version: 6.00 Build 0)  -->
<svg version="1.1" id="图层_1" xmlns="http://www.w3.org/2000/svg" xmlns:xlink="http://www.w3.org/1999/xlink" x="0px" y="0px"
	 width="1024px" height="1024px" viewBox="0 0 1024 1024" style="enable-background:new 0 0 1024 1024;" xml:space="preserve">
<style type="text/css">
	.st0{fill:#fff;}
</style>
<path class="st0" d="M613.4,570.2v164c0,9.4,7.6,17.1,17,17.1c0,0,0,0,0,0h105c9.4,0,17.1-7.6,17.1-17.1v-164
	c0-9.4-7.6-17.1-17.1-17.1h-105C621,553.1,613.4,560.8,613.4,570.2C613.4,570.2,613.4,570.2,613.4,570.2z M862.7,0.1H161.2
	C72.1,0.1,0,72.3,0,161.3v701.6c0,89,72.1,161.2,161.2,161.2h701.6c89,0,161.2-72.1,161.2-161.2V161.3
	C1023.9,72.3,951.8,0.1,862.7,0.1z M180.8,281.7v-59c0-9.4,7.6-17,17.1-17.1h292.5c9.4,0,17.1,7.6,17.1,17.1v417.7
	c0,9.4-7.6,17.1-17.1,17.1h-41.9c-9.4,0-17.1-7.7-17.1-17.1V281.7H256.9v358.7c0,9.4-7.6,17.1-17.1,17.1h-41.9
	c-9.4,0-17.1-7.7-17.1-17.1V281.7z M510,798.4c0,9.4-7.6,17.1-17.1,17.1c-60.9,0-114.8-29.2-148.9-74.2
	c-34.2,45-88.1,74.2-148.9,74.2c-9.4,0-17.1-7.6-17.1-17.1v-42.1c0-9.4,7.6-17.1,17.1-17.1c0,0,0,0,0,0v-0.2
	c61.1,0,110.6-49.5,110.6-110.6h0.4v-296c0-9.4,7.6-17,17-17.1h41.9c9.4,0,17.1,7.6,17.1,17c0,0,0,0,0,0v296h0.1
	c0,61.1,49.5,110.6,110.6,110.6v0.2c9.4,0,17.1,7.6,17.1,17.1c0,0,0,0,0,0L510,798.4L510,798.4z M845.8,309.3c0,9.4-7.6,17-17,17.1
	c0,0,0,0-0.1,0H655.3v150.7h156.4c9.4,0,17.1,7.6,17.1,17.1c0,0,0,0,0,0v59h-0.3v198.1h0.3v59c0,9.4-7.6,17.1-17,17.1c0,0,0,0,0,0
	H554.4c-9.4,0-17.1-7.6-17.1-17.1c0,0,0,0,0,0V494.2c0-9.4,7.6-17.1,17.1-17.1h24.9V213.8c0-9.4,7.6-17.1,17-17.1c0,0,0,0,0,0h41.9
	c9.4,0,17.1,7.6,17.1,17c0,0,0,0,0,0v36.5h173.5c9.4,0,17.1,7.6,17.1,17c0,0,0,0,0,0V309.3L845.8,309.3z"/>
</svg>
