<?xml version="1.0" encoding="utf-8"?>
<!-- Generator: Adobe Illustrator 23.0.0, SVG Export Plug-In . SVG Version: 6.00 Build 0)  -->
<svg version="1.1" id="图层_1" xmlns="http://www.w3.org/2000/svg" xmlns:xlink="http://www.w3.org/1999/xlink" x="0px" y="0px"
	 width="1024px" height="1024px" viewBox="0 0 1024 1024" style="enable-background:new 0 0 1024 1024;" xml:space="preserve">
<style type="text/css">
	.st0{fill:#fff;}
</style>
<path class="st0" d="M1024,636c0-141.9-141.9-257.4-301.5-257.4c-169.1,0-301.9,115.5-301.9,257.4c0,142.3,132.8,257.4,301.9,257.4
	c35.4,0,71.1-9,106.5-17.6l97.5,53.4l-26.7-88.8C970.9,787,1024,715.8,1024,636z M624.6,591.6c-17.6,0-35.3-17.7-35.3-35.4
	c0-17.6,17.7-35.3,35.3-35.3c26.8,0,44.5,17.7,44.5,35.3C669.1,574,651.4,591.6,624.6,591.6z M820,591.6
	c-17.7,0-35.3-17.7-35.3-35.4c0-17.6,17.6-35.3,35.3-35.3c26.7,0,44.4,17.7,44.4,35.3C864.4,574,846.3,591.6,820,591.6z
	 M693.2,347.2c11.6,0,23.3,0.8,34.9,2C696.9,203.1,540.8,94.8,362.5,94.8C163.4,94.8,0,230.4,0,403c0,99.6,54.2,181.4,144.9,244.9
	L108.8,757l126.8-63.8c45.4,8.8,81.9,18.1,126.8,18.1c11.2,0,22.5-0.4,33.7-1.6C389,685.6,385,660,385,633.9
	C385,475.7,521.1,347.2,693.2,347.2z M498.1,248.9c27.3,0,45.3,18.1,45.3,45.4c0,27.3-18.1,45.3-45.3,45.3
	c-27.3,0-54.6-18.1-54.6-45.3C444,266.9,471.2,248.9,498.1,248.9z M244.5,339.6c-27.3,0-54.6-18-54.6-45.3
	c0-27.3,27.3-45.4,54.6-45.4c27.3,0,45.4,18.1,45.4,45.4C289.8,321.1,271.8,339.6,244.5,339.6z"/>
</svg>
